HIERARCHY
ROOT Pelvis
{
	OFFSET 0.000000 0.941512 0.000000
	CHANNELS 6 Xposition Yposition Zposition Zrotation Yrotation Xrotation 
	JOINT Pelvis_L_Hip
	{
		OFFSET 0.000000 0.000000 0.000000
		CHANNELS 3 Zrotation Yrotation Xrotation
		JOINT L_Hip
		{
			OFFSET 0.062321 -0.080322 -0.016990
			CHANNELS 3 Zrotation Yrotation Xrotation
			JOINT L_Knee
			{
				OFFSET 0.093051 -0.381305 -0.029784
				CHANNELS 3 Zrotation Yrotation Xrotation
				JOINT L_Ankle
				{
					OFFSET -0.010371 -0.431000 -0.033614
					CHANNELS 3 Zrotation Yrotation Xrotation
					End Site #name: L_Foot
					{
						OFFSET 0.069299 -0.038670 0.119418
					}
				}
			}
		}
	}
	JOINT Pelvis_R_Hip
	{
		OFFSET 0.000000 0.000000 0.000000
		CHANNELS 3 Zrotation Yrotation Xrotation
		JOINT R_Hip
		{
			OFFSET -0.055334 -0.094904 -0.002373
			CHANNELS 3 Zrotation Yrotation Xrotation
			JOINT R_Knee
			{
				OFFSET -0.064207 -0.384370 -0.019592
				CHANNELS 3 Zrotation Yrotation Xrotation
				JOINT R_Ankle
				{
					OFFSET 0.025418 -0.419734 -0.065953
					CHANNELS 3 Zrotation Yrotation Xrotation
					End Site #name: R_Foot
					{
						OFFSET -0.057233 -0.039888 0.132134
					}
				}
			}
		}
	}
	JOINT Pelvis_Spine1
	{
		OFFSET 0.000000 0.000000 0.000000
		CHANNELS 3 Zrotation Yrotation Xrotation
		JOINT Spine1
		{
			OFFSET -0.005562 0.124093 -0.043360
			CHANNELS 3 Zrotation Yrotation Xrotation
			JOINT Spine2
			{
				OFFSET 0.012244 0.139499 0.029894
				CHANNELS 3 Zrotation Yrotation Xrotation
				JOINT Spine3
				{
					OFFSET -0.002556 0.056561 0.009225
					CHANNELS 3 Zrotation Yrotation Xrotation
					JOINT Spine3_Neck
					{
						OFFSET 0.000000 0.000000 0.000000
						CHANNELS 3 Zrotation Yrotation Xrotation
						JOINT Neck
						{
							OFFSET -0.005205 0.217920 -0.024551
							CHANNELS 3 Zrotation Yrotation Xrotation
							End Site #name: Head
							{
								OFFSET 0.002365 0.091850 0.046637
							}
						}
					}
					JOINT Spine3_L_Collar
					{
						OFFSET 0.000000 0.000000 0.000000
						CHANNELS 3 Zrotation Yrotation Xrotation
						JOINT L_Collar
						{
							OFFSET 0.072225 0.116603 -0.009480
							CHANNELS 3 Zrotation Yrotation Xrotation
							JOINT L_Shoulder
							{
								OFFSET 0.115937 -0.058643 -0.021018
								CHANNELS 3 Zrotation Yrotation Xrotation
								JOINT L_Elbow
								{
									OFFSET 0.021994 -0.254722 -0.024492
									CHANNELS 3 Zrotation Yrotation Xrotation
									End Site #name: L_Wrist
									{
										OFFSET 0.048810 -0.240214 0.103329
									}
								}
							}
						}
					}
					JOINT Spine3_R_Collar
					{
						OFFSET 0.000000 0.000000 0.000000
						CHANNELS 3 Zrotation Yrotation Xrotation
						JOINT R_Collar
						{
							OFFSET -0.073372 0.120704 -0.024611
							CHANNELS 3 Zrotation Yrotation Xrotation
							JOINT R_Shoulder
							{
								OFFSET -0.108089 -0.054969 -0.020504
								CHANNELS 3 Zrotation Yrotation Xrotation
								JOINT R_Elbow
								{
									OFFSET -0.033684 -0.260739 0.009889
									CHANNELS 3 Zrotation Yrotation Xrotation
									End Site #name: R_Wrist
									{
										OFFSET -0.067980 -0.232763 0.118463
									}
								}
							}
						}
					}
				}
			}
		}
	}
}
MOTION
Frames: 12
Frame Time: 0.041667
0.111124 0.911212 0.054849 7.052694 29.099009 -19.499518 0.000000 0.000000 0.000000 -11.498412 0.618926 0.408034 -12.009539 0.687758 31.656203 8.981397 11.772498 -6.789354 0.000000 0.000000 0.000000 30.402531 14.218006 -49.225058 -10.124107 3.492588 15.977038 24.618147 16.891763 35.620321 0.000000 0.000000 0.000000 -18.820640 2.187691 28.309057 -1.305070 0.369441 2.537260 7.326943 8.909488 13.800935 0.000000 0.000000 0.000000 -12.106709 5.902949 -1.765538 0.000000 0.000000 0.000000 41.328052 -14.250376 0.546270 19.468260 2.196998 -41.871492 23.004805 17.102566 -69.852105 0.000000 0.000000 0.000000 -38.779758 9.775354 -7.679525 22.847076 -3.764267 13.767695 -10.959312 7.427621 -53.473975 
0.119464 0.912012 0.061386 6.572146 30.647902 -23.938521 0.000000 0.000000 0.000000 -11.262217 2.171491 5.457237 -11.697652 0.424328 32.701891 9.316588 10.347694 -8.002611 0.000000 0.000000 0.000000 37.031130 17.616592 -54.655268 -17.157698 7.310794 26.876248 28.202030 23.404102 34.909504 0.000000 0.000000 0.000000 -16.745504 1.147035 29.417057 -0.411636 0.267955 4.279533 7.755474 8.089403 13.767140 0.000000 0.000000 0.000000 -12.871020 6.344616 1.068775 0.000000 0.000000 0.000000 42.621456 -15.986170 -1.263429 20.930825 3.450092 -47.451466 27.587310 23.383424 -67.826920 0.000000 0.000000 0.000000 -37.615182 8.109697 -5.898106 22.778257 -4.526569 15.910152 -10.776947 7.344521 -52.670323 
0.127297 0.914869 0.066447 5.741296 29.840910 -25.539055 0.000000 0.000000 0.000000 -11.152414 2.790263 7.576734 -10.978508 0.293790 32.863081 9.899860 10.746746 -8.769414 0.000000 0.000000 0.000000 42.611250 20.830051 -57.099517 -21.308592 10.089492 31.303466 29.382423 25.341489 34.673790 0.000000 0.000000 0.000000 -13.689894 0.203597 28.442991 0.181293 0.113004 3.496768 7.691778 8.090557 13.689483 0.000000 0.000000 0.000000 -12.526696 6.197926 2.408989 0.000000 0.000000 0.000000 40.530876 -15.437599 -0.833240 17.132578 2.827422 -52.920213 26.353004 21.882715 -72.040115 0.000000 0.000000 0.000000 -36.498899 7.365420 -5.204895 23.125444 -5.628640 18.880682 -10.069512 6.992180 -49.254881 
0.129672 0.919111 0.068959 5.388827 29.808344 -26.267422 0.000000 0.000000 0.000000 -11.751306 3.184748 8.775798 -9.434159 -0.134954 32.655427 9.883002 10.323453 -8.941789 0.000000 0.000000 0.000000 43.804521 21.626306 -57.937116 -22.165539 11.327291 34.825932 25.204862 25.021425 28.975515 0.000000 0.000000 0.000000 -12.421662 -0.210466 27.928379 0.601427 0.005371 2.915112 7.712716 7.835107 13.276590 0.000000 0.000000 0.000000 -11.211895 5.549790 2.000887 0.000000 0.000000 0.000000 39.366541 -15.400469 -0.981770 14.232580 1.872499 -54.921821 25.032126 20.470856 -77.110222 0.000000 0.000000 0.000000 -35.465397 6.776558 -4.591357 24.565816 -6.065893 19.418502 -9.644498 6.318419 -45.875565 
0.127548 0.922372 0.069219 5.210296 30.290093 -26.294536 0.000000 0.000000 0.000000 -11.346361 3.270007 9.214833 -9.333235 -0.153915 31.839488 9.491918 9.314002 -8.787022 0.000000 0.000000 0.000000 42.307692 20.839540 -57.997711 -22.557116 12.092683 37.910976 24.276742 23.996880 28.332257 0.000000 0.000000 0.000000 -12.368523 -0.154349 26.696081 0.884179 -0.038323 3.426216 8.081842 7.623371 13.054825 0.000000 0.000000 0.000000 -9.217476 4.588588 0.395469 0.000000 0.000000 0.000000 39.079451 -15.826045 -1.420575 13.189994 1.561860 -56.362538 23.984742 19.059843 -80.077318 0.000000 0.000000 0.000000 -34.341346 6.133877 -4.014758 26.044853 -5.782174 17.939102 -9.145222 5.859110 -42.844559 
0.123333 0.925084 0.066894 4.801982 30.509795 -25.450776 0.000000 0.000000 0.000000 -10.963696 2.960524 8.233352 -8.963998 -0.254696 31.158058 9.080995 8.737794 -8.378773 0.000000 0.000000 0.000000 39.371163 19.337395 -57.416108 -22.794671 12.611093 40.766434 22.389307 23.923154 25.652336 0.000000 0.000000 0.000000 -12.475045 0.014326 25.108298 1.498004 -0.164444 3.683429 8.452303 7.929205 12.795907 0.000000 0.000000 0.000000 -7.620145 3.841027 -0.839035 0.000000 0.000000 0.000000 39.071352 -16.370040 -1.812207 12.176076 1.185560 -56.862114 22.509352 16.530771 -82.109294 0.000000 0.000000 0.000000 -33.606313 6.489628 -4.525498 27.399124 -5.685068 17.120943 -8.976450 5.287928 -40.531874 
0.119486 0.928535 0.062516 4.313909 29.826834 -23.861701 0.000000 0.000000 0.000000 -11.058688 2.455606 6.396933 -7.919427 -0.432609 30.077335 8.677666 9.027111 -7.605042 0.000000 0.000000 0.000000 35.612591 17.629977 -55.962009 -22.285542 12.714403 43.776709 18.794900 20.615135 22.453569 0.000000 0.000000 0.000000 -11.919212 0.088047 23.206061 1.832862 -0.237392 3.715256 8.660050 8.725214 12.728188 0.000000 0.000000 0.000000 -6.214816 3.237715 -2.734411 0.000000 0.000000 0.000000 38.214035 -16.401679 -1.732681 10.800968 0.557492 -56.099562 19.946222 11.454996 -83.932444 0.000000 0.000000 0.000000 -32.729357 7.847163 -5.993363 27.737855 -5.643508 16.747225 -9.077207 4.481739 -38.335365 
0.116967 0.933976 0.057586 3.525358 28.588818 -22.021235 0.000000 0.000000 0.000000 -10.839737 1.952997 4.671191 -6.796060 -0.497099 27.955188 7.911516 9.387996 -6.285982 0.000000 0.000000 0.000000 31.183356 15.620999 -53.443265 -21.532439 12.520730 46.476038 16.053925 16.210611 21.180285 0.000000 0.000000 0.000000 -10.572083 -0.028872 21.203060 2.080151 -0.290920 3.766860 8.448567 9.295029 12.562237 0.000000 0.000000 0.000000 -4.665558 2.622094 -4.854724 0.000000 0.000000 0.000000 36.849779 -15.775575 -1.140801 7.948089 -0.698261 -52.569733 16.422726 3.736166 -85.784024 0.000000 0.000000 0.000000 -31.998607 9.217709 -7.351094 27.162094 -5.112681 15.439959 -8.312357 4.332419 -35.376722 
0.116908 0.940355 0.053664 2.928334 27.234033 -19.732037 0.000000 0.000000 0.000000 -10.890866 1.559959 3.268237 -5.451373 -0.501581 24.656270 6.821714 9.525319 -4.621970 0.000000 0.000000 0.000000 25.583835 13.202982 -50.253440 -20.101268 11.944430 49.617592 13.995660 12.533262 20.413747 0.000000 0.000000 0.000000 -8.942357 -0.184549 18.986942 2.245671 -0.333225 3.388212 7.940833 9.202323 12.239833 0.000000 0.000000 0.000000 -2.808686 1.879264 -6.367858 0.000000 0.000000 0.000000 34.984711 -14.737128 -0.467548 3.942303 -2.040078 -45.447116 12.006288 -6.198696 -85.747102 0.000000 0.000000 0.000000 -31.420428 9.699939 -7.699508 26.343494 -4.061486 12.839013 -6.830125 4.513598 -31.383727 
0.118938 0.946418 0.051326 2.445088 25.450817 -17.179078 0.000000 0.000000 0.000000 -10.963045 1.238908 2.105955 -4.171954 -0.424581 20.716059 5.757035 10.030498 -2.828498 0.000000 0.000000 0.000000 19.680565 10.723391 -45.951249 -18.396661 11.126019 52.262806 12.243748 9.217221 19.840252 0.000000 0.000000 0.000000 -7.093152 -0.339886 16.532492 2.298365 -0.351767 2.887930 7.141248 8.854840 11.718847 0.000000 0.000000 0.000000 -0.944278 1.139519 -7.767974 0.000000 0.000000 0.000000 32.783040 -13.552081 0.041802 -0.557279 -2.727665 -35.677764 6.343635 -16.438924 -81.278722 0.000000 0.000000 0.000000 -30.562423 10.129978 -7.824148 25.232059 -3.130156 10.478158 -5.373129 4.531133 -27.325872 
0.121659 0.949948 0.051217 1.707544 22.904564 -14.395963 0.000000 0.000000 0.000000 -10.506847 0.808451 0.683053 -3.479319 -0.249567 16.895048 5.185818 11.536411 -1.178303 0.000000 0.000000 0.000000 14.199729 8.602561 -41.210998 -15.514893 9.682627 54.584829 8.766911 3.982369 17.335204 0.000000 0.000000 0.000000 -4.756139 -0.525904 13.466603 2.075482 -0.313315 2.346990 6.365039 8.451338 11.321424 0.000000 0.000000 0.000000 0.737861 0.459247 -8.808128 0.000000 0.000000 0.000000 30.463961 -12.091828 0.591710 -5.180972 -2.512691 -25.428952 -1.022047 -23.775317 -70.474052 0.000000 0.000000 0.000000 -29.803685 10.383880 -7.684100 24.386507 -2.430437 8.604660 -4.060173 4.498785 -23.779337 
0.123477 0.952885 0.052462 0.977698 19.690731 -11.710871 0.000000 0.000000 0.000000 -9.997528 0.433507 -0.543117 -2.734065 -0.138106 13.264837 4.925066 13.667029 0.489468 0.000000 0.000000 0.000000 9.116214 6.753960 -36.124110 -11.649312 7.659982 56.311277 5.035714 -2.665440 15.180904 0.000000 0.000000 0.000000 -2.614132 -0.728315 11.122446 1.807595 -0.288386 1.097973 5.801353 8.155917 10.935087 0.000000 0.000000 0.000000 1.830282 0.005683 -9.655247 0.000000 0.000000 0.000000 27.813244 -10.217620 1.215411 -8.709284 -1.557453 -16.230842 -8.867753 -25.949638 -55.071193 0.000000 0.000000 0.000000 -28.950197 10.591555 -7.358389 23.699916 -2.044331 7.520847 -3.161252 4.346895 -21.076615 
